<svg xmlns="http://www.w3.org/2000/svg" width="2000" height="2000" viewBox="0 0 800 800" role="img" aria-label="Cloak mockup monochrome">
  <!-- Monochrome / embroidery-safe variant of the cloak mockup -->
  <rect width="100%" height="100%" fill="#ffffff"/>

  <!-- Cloak silhouette (single color) -->
  <path d="M140 160 C 120 320, 160 520, 240 640 C 300 720, 500 720, 560 640 C 640 520, 680 320, 660 160 L 620 140 C 620 140, 520 220, 400 220 C 280 220, 180 140, 180 140 Z"
        fill="#111111"/>

  <!-- Hood -->
  <path d="M220 120 C 240 80, 320 60, 400 60 C 480 60, 560 80, 580 120 C 560 120, 520 100, 400 100 C 280 100, 240 120, 220 120 Z"
        fill="#111111"/>

  <!-- Emblem circle -->
  <circle cx="400" cy="420" r="78" fill="#ffffff" stroke="#111111" stroke-width="6"/>

  <!-- Simple initials mark (embroidery-safe) -->
  <text x="400" y="458" font-family="Helvetica, Arial, sans-serif" font-weight="700" font-size="44" fill="#111111" text-anchor="middle">LS++</text>

  <text x="400" y="740" font-family="Arial, Helvetica, sans-serif" font-size="18" fill="#334155" text-anchor="middle">Cloak mockup — monochrome emblem</text>
</svg>
